<?xml version="1.0" encoding="utf-8"?>
<COLLADA xmlns="http://www.collada.org/2005/11/COLLADASchema" version="1.4.1" xmlns:xsi="http://www.w3.org/2001/XMLSchema-instance">
  <asset>
    <contributor>
      <author>Blender User</author>
      <authoring_tool>Blender 4.4.0 commit date:2025-03-17, commit time:17:00, hash:05377985c527</authoring_tool>
    </contributor>
    <created>2025-04-10T09:00:29</created>
    <modified>2025-04-10T09:00:29</modified>
    <unit name="meter" meter="1"/>
    <up_axis>Z_UP</up_axis>
  </asset>
  <library_effects>
    <effect id="Material_002-effect">
      <profile_COMMON>
        <newparam sid="beechwood_brown_png-surface">
          <surface type="2D">
            <init_from>beechwood_brown_png</init_from>
          </surface>
        </newparam>
        <newparam sid="beechwood_brown_png-sampler">
          <sampler2D>
            <source>beechwood_brown_png-surface</source>
          </sampler2D>
        </newparam>
        <technique sid="common">
          <lambert>
            <emission>
              <color sid="emission">0 0 0 1</color>
            </emission>
            <diffuse>
              <texture texture="beechwood_brown_png-sampler" texcoord="Family2_Family2__4851___4848__Geometry-mesh-map-0"/>
            </diffuse>
            <index_of_refraction>
              <float sid="ior">1.5</float>
            </index_of_refraction>
          </lambert>
        </technique>
      </profile_COMMON>
    </effect>
    <effect id="Material-effect">
      <profile_COMMON>
        <technique sid="common">
          <lambert>
            <emission>
              <color sid="emission">0 0 0 1</color>
            </emission>
            <diffuse>
              <color sid="diffuse">0.02004368 0.02004368 0.02004368 1</color>
            </diffuse>
            <reflectivity>
              <float sid="specular">0.4409449</float>
            </reflectivity>
            <index_of_refraction>
              <float sid="ior">1.5</float>
            </index_of_refraction>
          </lambert>
        </technique>
      </profile_COMMON>
    </effect>
    <effect id="Material_001-effect">
      <profile_COMMON>
        <newparam sid="potted_jpg-surface">
          <surface type="2D">
            <init_from>potted_jpg</init_from>
          </surface>
        </newparam>
        <newparam sid="potted_jpg-sampler">
          <sampler2D>
            <source>potted_jpg-surface</source>
          </sampler2D>
        </newparam>
        <technique sid="common">
          <lambert>
            <emission>
              <color sid="emission">0 0 0 1</color>
            </emission>
            <diffuse>
              <texture texture="potted_jpg-sampler" texcoord="UVMap"/>
            </diffuse>
            <index_of_refraction>
              <float sid="ior">1.45</float>
            </index_of_refraction>
          </lambert>
        </technique>
      </profile_COMMON>
    </effect>
  </library_effects>
  <library_images>
    <image id="beechwood_brown_png" name="beechwood_brown_png">
      <init_from>beechwood_brown.png</init_from>
    </image>
    <image id="potted_jpg" name="potted_jpg">
      <init_from>potted.jpg</init_from>
    </image>
  </library_images>
  <library_materials>
    <material id="Material_002-material" name="Material.002">
      <instance_effect url="#Material_002-effect"/>
    </material>
    <material id="Material-material" name="Material">
      <instance_effect url="#Material-effect"/>
    </material>
    <material id="Material_001-material" name="Material.001">
      <instance_effect url="#Material_001-effect"/>
    </material>
  </library_materials>
  <library_geometries>
    <geometry id="Family2_Family2__4851___4848__Geometry_002-mesh" name="Family2 Family2 [4851]_[4848] Geometry.002">
      <mesh>
        <source id="Family2_Family2__4851___4848__Geometry_002-mesh-positions">
          <float_array id="Family2_Family2__4851___4848__Geometry_002-mesh-positions-array" count="24">1.9521 0.8038058 0.03280836 -1.9521 0.8038058 0.03280836 -1.9521 -0.8038058 0.03280836 1.9521 -0.8038058 0.03280836 1.9521 0.8038058 0 1.9521 -0.8038058 0 -1.9521 -0.8038058 0 -1.9521 0.8038058 0</float_array>
          <technique_common>
            <accessor source="#Family2_Family2__4851___4848__Geometry_002-mesh-positions-array" count="8" stride="3">
              <param name="X" type="float"/>
              <param name="Y" type="float"/>
              <param name="Z" type="float"/>
            </accessor>
          </technique_common>
        </source>
        <source id="Family2_Family2__4851___4848__Geometry_002-mesh-normals">
          <float_array id="Family2_Family2__4851___4848__Geometry_002-mesh-normals-array" count="18">0 0 1 0 0 -1 0 1 0 -1 0 0 0 -1 0 1 0 0</float_array>
          <technique_common>
            <accessor source="#Family2_Family2__4851___4848__Geometry_002-mesh-normals-array" count="6" stride="3">
              <param name="X" type="float"/>
              <param name="Y" type="float"/>
              <param name="Z" type="float"/>
            </accessor>
          </technique_common>
        </source>
        <source id="Family2_Family2__4851___4848__Geometry_002-mesh-map-0">
          <float_array id="Family2_Family2__4851___4848__Geometry_002-mesh-map-0-array" count="72">-3.904199 1.607612 -3.904199 0 0 0 0 0 0 1.607612 -3.904199 1.607612 0 1.607612 0 0 3.904199 0 3.904199 0 3.904199 1.607612 0 1.607612 0 3.904199 0 0 0.03280836 0 0.03280836 0 0.03280836 3.904199 0 3.904199 0 1.607612 0 0 0.03280836 0 0.03280836 0 0.03280836 1.607612 0 1.607612 0 3.904199 0 0 0.03280836 0 0.03280836 0 0.03280836 3.904199 0 3.904199 0 1.607612 0 0 0.03280836 0 0.03280836 0 0.03280836 1.607612 0 1.607612</float_array>
          <technique_common>
            <accessor source="#Family2_Family2__4851___4848__Geometry_002-mesh-map-0-array" count="36" stride="2">
              <param name="S" type="float"/>
              <param name="T" type="float"/>
            </accessor>
          </technique_common>
        </source>
        <vertices id="Family2_Family2__4851___4848__Geometry_002-mesh-vertices">
          <input semantic="POSITION" source="#Family2_Family2__4851___4848__Geometry_002-mesh-positions"/>
        </vertices>
        <triangles material="Material_002-material" count="12">
          <input semantic="VERTEX" source="#Family2_Family2__4851___4848__Geometry_002-mesh-vertices" offset="0"/>
          <input semantic="NORMAL" source="#Family2_Family2__4851___4848__Geometry_002-mesh-normals" offset="1"/>
          <input semantic="TEXCOORD" source="#Family2_Family2__4851___4848__Geometry_002-mesh-map-0" offset="2" set="0"/>
          <p>3 0 0 0 0 1 1 0 2 1 0 3 2 0 4 3 0 5 6 1 6 7 1 7 4 1 8 4 1 9 5 1 10 6 1 11 1 2 12 0 2 13 4 2 14 4 2 15 7 2 16 1 2 17 2 3 18 1 3 19 7 3 20 7 3 21 6 3 22 2 3 23 3 4 24 2 4 25 6 4 26 6 4 27 5 4 28 3 4 29 0 5 30 3 5 31 5 5 32 5 5 33 4 5 34 0 5 35</p>
        </triangles>
      </mesh>
    </geometry>
    <geometry id="Family2_Family2__4851___4848__Geometry_001-mesh" name="Family2 Family2 [4851]_[4848] Geometry.001">
      <mesh>
        <source id="Family2_Family2__4851___4848__Geometry_001-mesh-positions">
          <float_array id="Family2_Family2__4851___4848__Geometry_001-mesh-positions-array" count="24">1.9521 0.8038058 0.03280836 -1.9521 0.8038058 0.03280836 -1.9521 -0.8038058 0.03280836 1.9521 -0.8038058 0.03280836 1.9521 0.8038058 0 1.9521 -0.8038058 0 -1.9521 -0.8038058 0 -1.9521 0.8038058 0</float_array>
          <technique_common>
            <accessor source="#Family2_Family2__4851___4848__Geometry_001-mesh-positions-array" count="8" stride="3">
              <param name="X" type="float"/>
              <param name="Y" type="float"/>
              <param name="Z" type="float"/>
            </accessor>
          </technique_common>
        </source>
        <source id="Family2_Family2__4851___4848__Geometry_001-mesh-normals">
          <float_array id="Family2_Family2__4851___4848__Geometry_001-mesh-normals-array" count="18">0 0 1 0 0 -1 0 1 0 -1 0 0 0 -1 0 1 0 0</float_array>
          <technique_common>
            <accessor source="#Family2_Family2__4851___4848__Geometry_001-mesh-normals-array" count="6" stride="3">
              <param name="X" type="float"/>
              <param name="Y" type="float"/>
              <param name="Z" type="float"/>
            </accessor>
          </technique_common>
        </source>
        <source id="Family2_Family2__4851___4848__Geometry_001-mesh-map-0">
          <float_array id="Family2_Family2__4851___4848__Geometry_001-mesh-map-0-array" count="72">-3.904199 1.607612 -3.904199 0 0 0 0 0 0 1.607612 -3.904199 1.607612 0 1.607612 0 0 3.904199 0 3.904199 0 3.904199 1.607612 0 1.607612 0 3.904199 0 0 0.03280836 0 0.03280836 0 0.03280836 3.904199 0 3.904199 0 1.607612 0 0 0.03280836 0 0.03280836 0 0.03280836 1.607612 0 1.607612 0 3.904199 0 0 0.03280836 0 0.03280836 0 0.03280836 3.904199 0 3.904199 0 1.607612 0 0 0.03280836 0 0.03280836 0 0.03280836 1.607612 0 1.607612</float_array>
          <technique_common>
            <accessor source="#Family2_Family2__4851___4848__Geometry_001-mesh-map-0-array" count="36" stride="2">
              <param name="S" type="float"/>
              <param name="T" type="float"/>
            </accessor>
          </technique_common>
        </source>
        <vertices id="Family2_Family2__4851___4848__Geometry_001-mesh-vertices">
          <input semantic="POSITION" source="#Family2_Family2__4851___4848__Geometry_001-mesh-positions"/>
        </vertices>
        <triangles material="Material_002-material" count="12">
          <input semantic="VERTEX" source="#Family2_Family2__4851___4848__Geometry_001-mesh-vertices" offset="0"/>
          <input semantic="NORMAL" source="#Family2_Family2__4851___4848__Geometry_001-mesh-normals" offset="1"/>
          <input semantic="TEXCOORD" source="#Family2_Family2__4851___4848__Geometry_001-mesh-map-0" offset="2" set="0"/>
          <p>3 0 0 0 0 1 1 0 2 1 0 3 2 0 4 3 0 5 6 1 6 7 1 7 4 1 8 4 1 9 5 1 10 6 1 11 1 2 12 0 2 13 4 2 14 4 2 15 7 2 16 1 2 17 2 3 18 1 3 19 7 3 20 7 3 21 6 3 22 2 3 23 3 4 24 2 4 25 6 4 26 6 4 27 5 4 28 3 4 29 0 5 30 3 5 31 5 5 32 5 5 33 4 5 34 0 5 35</p>
        </triangles>
      </mesh>
    </geometry>
    <geometry id="_Extrusion__3348__Geometry-mesh" name=" Extrusion [3348] Geometry">
      <mesh>
        <source id="_Extrusion__3348__Geometry-mesh-positions">
          <float_array id="_Extrusion__3348__Geometry-mesh-positions-array" count="144">-1.9521 0.656168 3.28084 -1.9521 0.8038058 3.28084 -1.804462 0.8038058 3.28084 -1.804462 0.82021 3.28084 -1.968504 0.82021 3.28084 -1.968504 0.656168 3.28084 -1.9521 -0.656168 3.28084 -1.968504 -0.656168 3.28084 -1.968504 -0.82021 3.28084 -1.804462 -0.82021 3.28084 -1.804462 -0.8038058 3.28084 -1.9521 -0.8038058 3.28084 1.9521 0.656168 3.28084 1.968504 0.656168 3.28084 1.968504 0.82021 3.28084 1.804462 0.82021 3.28084 1.804462 0.8038058 3.28084 1.9521 0.8038058 3.28084 1.9521 -0.656168 3.28084 1.9521 -0.8038058 3.28084 1.804462 -0.8038058 3.28084 1.804462 -0.82021 3.28084 1.968504 -0.82021 3.28084 1.968504 -0.656168 3.28084 -1.9521 0.656168 0 -1.968504 0.656168 0 -1.968504 0.82021 0 -1.804462 0.82021 0 -1.804462 0.8038058 0 -1.9521 0.8038058 0 -1.9521 -0.656168 0 -1.9521 -0.8038058 0 -1.804462 -0.8038058 0 -1.804462 -0.82021 0 -1.968504 -0.82021 0 -1.968504 -0.656168 0 1.9521 0.656168 0 1.9521 0.8038058 0 1.804462 0.8038058 0 1.804462 0.82021 0 1.968504 0.82021 0 1.968504 0.656168 0 1.9521 -0.656168 0 1.968504 -0.656168 0 1.968504 -0.82021 0 1.804462 -0.82021 0 1.804462 -0.8038058 0 1.9521 -0.8038058 0</float_array>
          <technique_common>
            <accessor source="#_Extrusion__3348__Geometry-mesh-positions-array" count="48" stride="3">
              <param name="X" type="float"/>
              <param name="Y" type="float"/>
              <param name="Z" type="float"/>
            </accessor>
          </technique_common>
        </source>
        <source id="_Extrusion__3348__Geometry-mesh-normals">
          <float_array id="_Extrusion__3348__Geometry-mesh-normals-array" count="24">0 0 1 2.215e-5 0 1 -2.215e-5 0 1 0 0 -1 1 0 0 0 -1 0 0 1 0 -1 0 0</float_array>
          <technique_common>
            <accessor source="#_Extrusion__3348__Geometry-mesh-normals-array" count="8" stride="3">
              <param name="X" type="float"/>
              <param name="Y" type="float"/>
              <param name="Z" type="float"/>
            </accessor>
          </technique_common>
        </source>
        <source id="_Extrusion__3348__Geometry-mesh-map-0">
          <float_array id="_Extrusion__3348__Geometry-mesh-map-0-array" count="480">-0.1476378 0.01640415 -0.1476378 0 0 0 0 0 0.01640415 -0.1476378 0.01640415 0.01640415 0.01640415 -0.1476378 0 0 0 -0.1476378 0 0 0.01640415 0.01640415 -0.1476378 0.01640415 -1.624016 0.01640415 -1.624016 -0.1476378 -1.607612 0 -1.607612 0 -1.624016 -0.1476378 -1.607612 -0.1476378 -1.624016 0.01640415 -1.607612 0 -1.459974 0.01640415 -1.459974 0 -1.459974 0.01640415 -1.607612 0 0 -3.904199 -0.1476378 -3.904199 -0.1476378 -3.920604 0 -3.904199 0.01640415 -3.920604 0.01640415 -3.756562 0.01640415 -3.920604 0 -3.904199 -0.1476378 -3.920604 0 -3.904199 0.01640415 -3.756562 0 -3.756562 -1.624016 -3.920604 -1.607612 -3.904199 -1.624016 -3.756562 -1.607612 -3.904199 -1.624016 -3.920604 -1.459974 -3.920604 -1.624016 -3.756562 -1.607612 -3.904199 -1.607612 -3.756562 -1.459974 -3.904199 -1.607612 -3.904199 -1.459974 -3.920604 -0.01640415 0.01640415 -0.01640415 -0.1476378 0 0 0 0 -0.01640415 -0.1476378 0 -0.1476378 -0.01640415 0.01640415 0 0 0.1476378 0.01640415 0.1476378 0 0.1476378 0.01640415 0 0 1.459974 0.01640415 1.459974 0 1.607612 0 1.607612 0 1.624016 -0.1476378 1.624016 0.01640415 1.624016 -0.1476378 1.607612 0 1.607612 -0.1476378 1.607612 0 1.624016 0.01640415 1.459974 0.01640415 -0.01640415 -3.920604 0 -3.904199 -0.01640415 -3.756562 0 -3.904199 -0.01640415 -3.920604 0.1476378 -3.920604 -0.01640415 -3.756562 0 -3.904199 0 -3.756562 0.1476378 -3.904199 0 -3.904199 0.1476378 -3.920604 1.607612 -3.904199 1.459974 -3.904199 1.459974 -3.920604 1.607612 -3.904199 1.624016 -3.920604 1.624016 -3.756562 1.624016 -3.920604 1.607612 -3.904199 1.459974 -3.920604 1.607612 -3.904199 1.624016 -3.756562 1.607612 -3.756562 0 0.1476378 0 0 3.28084 0.1476378 3.28084 0 3.28084 0.1476378 0 0 0 0.1476378 0 0 3.28084 0 3.28084 0 3.28084 0.1476378 0 0.1476378 0 0.01640415 0 0 3.28084 0 3.28084 0 3.28084 0.01640415 0 0.01640415 0 0.1640419 0 0 3.28084 0.1640419 3.28084 0 3.28084 0.1640419 0 0 0 0.1640419 0 0 3.28084 0.1640419 3.28084 0 3.28084 0.1640419 0 0 0 0.01640415 0 0 3.28084 0 3.28084 0 3.28084 0.01640415 0 0.01640415 0 0.01640415 0 0 3.28084 0.01640415 3.28084 0 3.28084 0.01640415 0 0 0 0.1640419 0 0 3.28084 0.1640419 3.28084 0 3.28084 0.1640419 0 0 0 0.1640419 0 0 3.28084 0.1640419 3.28084 0 3.28084 0.1640419 0 0 0 0.01640415 0 0 3.28084 0.01640415 3.28084 0 3.28084 0.01640415 0 0 0 0.1476378 0 0 3.28084 0.1476378 3.28084 0 3.28084 0.1476378 0 0 0 0.1476378 0 0 3.28084 0.1476378 3.28084 0 3.28084 0.1476378 0 0 0 0.01640415 0 0 3.28084 0 3.28084 0 3.28084 0.01640415 0 0.01640415 0 0.1640419 0 0 3.28084 0.1640419 3.28084 0 3.28084 0.1640419 0 0 0 0.1640419 0 0 3.28084 0.1640419 3.28084 0 3.28084 0.1640419 0 0 0 0.01640415 0 0 3.28084 0 3.28084 0 3.28084 0.01640415 0 0.01640415 0 0.1476378 0 0 3.28084 0.1476378 3.28084 0 3.28084 0.1476378 0 0 0 0.1476378 0 0 3.28084 0.1476378 3.28084 0 3.28084 0.1476378 0 0 0 0.1476378 0 0 3.28084 0.1476378 3.28084 0 3.28084 0.1476378 0 0 0 0.1476378 0 0 3.28084 0.1476378 3.28084 0 3.28084 0.1476378 0 0 0 0.01640415 0 0 3.28084 0 3.28084 0 3.28084 0.01640415 0 0.01640415 0 0.1640419 0 0 3.28084 0.1640419 3.28084 0 3.28084 0.1640419 0 0 0 0.1640419 0 0 3.28084 0.1640419 3.28084 0 3.28084 0.1640419 0 0 0 0.01640415 0 0 3.28084 0 3.28084 0 3.28084 0.01640415 0 0.01640415</float_array>
          <technique_common>
            <accessor source="#_Extrusion__3348__Geometry-mesh-map-0-array" count="240" stride="2">
              <param name="S" type="float"/>
              <param name="T" type="float"/>
            </accessor>
          </technique_common>
        </source>
        <vertices id="_Extrusion__3348__Geometry-mesh-vertices">
          <input semantic="POSITION" source="#_Extrusion__3348__Geometry-mesh-positions"/>
        </vertices>
        <triangles material="Material-material" count="80">
          <input semantic="VERTEX" source="#_Extrusion__3348__Geometry-mesh-vertices" offset="0"/>
          <input semantic="NORMAL" source="#_Extrusion__3348__Geometry-mesh-normals" offset="1"/>
          <input semantic="TEXCOORD" source="#_Extrusion__3348__Geometry-mesh-map-0" offset="2" set="0"/>
          <p>5 0 0 0 0 1 1 0 2 1 0 3 3 0 4 4 0 5 3 0 6 1 0 7 2 0 8 1 0 9 4 0 10 5 0 11 8 0 12 9 0 13 11 0 14 11 0 15 9 0 16 10 0 17 8 1 18 11 1 19 7 1 20 6 0 21 7 0 22 11 0 23 17 0 24 12 0 25 13 0 26 17 0 27 14 0 28 15 0 29 14 2 30 17 2 31 13 2 32 17 0 33 15 0 34 16 0 35 22 0 36 19 0 37 21 0 38 19 0 39 22 0 40 23 0 41 21 0 42 19 0 43 20 0 44 18 0 45 19 0 46 23 0 47 26 3 48 27 3 49 29 3 50 29 3 51 27 3 52 28 3 53 26 3 54 29 3 55 25 3 56 24 3 57 25 3 58 29 3 59 35 3 60 30 3 61 31 3 62 31 3 63 33 3 64 34 3 65 33 3 66 31 3 67 32 3 68 31 3 69 34 3 70 35 3 71 40 3 72 37 3 73 39 3 74 37 3 75 40 3 76 41 3 77 39 3 78 37 3 79 38 3 80 36 3 81 37 3 82 41 3 83 47 3 84 42 3 85 43 3 86 47 3 87 44 3 88 45 3 89 44 3 90 47 3 91 43 3 92 47 3 93 45 3 94 46 3 95 1 4 96 0 4 97 29 4 98 24 4 99 29 4 100 0 4 101 2 5 102 1 5 103 29 5 104 29 5 105 28 5 106 2 5 107 3 4 108 2 4 109 28 4 110 28 4 111 27 4 112 3 4 113 4 6 114 3 6 115 26 6 116 27 6 117 26 6 118 3 6 119 5 7 120 4 7 121 25 7 122 26 7 123 25 7 124 4 7 125 0 5 126 5 5 127 25 5 128 25 5 129 24 5 130 0 5 131 7 6 132 6 6 133 35 6 134 30 6 135 35 6 136 6 6 137 8 7 138 7 7 139 34 7 140 35 7 141 34 7 142 7 7 143 9 5 144 8 5 145 33 5 146 34 5 147 33 5 148 8 5 149 10 4 150 9 4 151 32 4 152 33 4 153 32 4 154 9 4 155 11 6 156 10 6 157 31 6 158 32 6 159 31 6 160 10 6 161 6 4 162 11 4 163 30 4 164 31 4 165 30 4 166 11 4 167 13 5 168 12 5 169 36 5 170 36 5 171 41 5 172 13 5 173 14 4 174 13 4 175 40 4 176 41 4 177 40 4 178 13 4 179 15 6 180 14 6 181 39 6 182 40 6 183 39 6 184 14 6 185 16 7 186 15 7 187 39 7 188 39 7 189 38 7 190 16 7 191 17 5 192 16 5 193 37 5 194 38 5 195 37 5 196 16 5 197 12 7 198 17 7 199 36 7 200 37 7 201 36 7 202 17 7 203 19 7 204 18 7 205 47 7 206 42 7 207 47 7 208 18 7 209 20 6 210 19 6 211 46 6 212 47 6 213 46 6 214 19 6 215 21 7 216 20 7 217 46 7 218 46 7 219 45 7 220 21 7 221 22 5 222 21 5 223 44 5 224 45 5 225 44 5 226 21 5 227 23 4 228 22 4 229 43 4 230 44 4 231 43 4 232 22 4 233 18 6 234 23 6 235 43 6 236 43 6 237 42 6 238 18 6 239</p>
        </triangles>
      </mesh>
    </geometry>
    <geometry id="Family2_Family2__4851___4848__Geometry-mesh" name="Family2 Family2 [4851]_[4848] Geometry">
      <mesh>
        <source id="Family2_Family2__4851___4848__Geometry-mesh-positions">
          <float_array id="Family2_Family2__4851___4848__Geometry-mesh-positions-array" count="24">1.9521 0.8038058 0.03280836 -1.9521 0.8038058 0.03280836 -1.9521 -0.8038058 0.03280836 1.9521 -0.8038058 0.03280836 1.9521 0.8038058 0 1.9521 -0.8038058 0 -1.9521 -0.8038058 0 -1.9521 0.8038058 0</float_array>
          <technique_common>
            <accessor source="#Family2_Family2__4851___4848__Geometry-mesh-positions-array" count="8" stride="3">
              <param name="X" type="float"/>
              <param name="Y" type="float"/>
              <param name="Z" type="float"/>
            </accessor>
          </technique_common>
        </source>
        <source id="Family2_Family2__4851___4848__Geometry-mesh-normals">
          <float_array id="Family2_Family2__4851___4848__Geometry-mesh-normals-array" count="18">0 0 1 0 0 -1 0 1 0 -1 0 0 0 -1 0 1 0 0</float_array>
          <technique_common>
            <accessor source="#Family2_Family2__4851___4848__Geometry-mesh-normals-array" count="6" stride="3">
              <param name="X" type="float"/>
              <param name="Y" type="float"/>
              <param name="Z" type="float"/>
            </accessor>
          </technique_common>
        </source>
        <source id="Family2_Family2__4851___4848__Geometry-mesh-map-0">
          <float_array id="Family2_Family2__4851___4848__Geometry-mesh-map-0-array" count="72">-3.904199 1.607612 -3.904199 0 0 0 0 0 0 1.607612 -3.904199 1.607612 0 1.607612 0 0 3.904199 0 3.904199 0 3.904199 1.607612 0 1.607612 0 3.904199 0 0 0.03280836 0 0.03280836 0 0.03280836 3.904199 0 3.904199 0 1.607612 0 0 0.03280836 0 0.03280836 0 0.03280836 1.607612 0 1.607612 0 3.904199 0 0 0.03280836 0 0.03280836 0 0.03280836 3.904199 0 3.904199 0 1.607612 0 0 0.03280836 0 0.03280836 0 0.03280836 1.607612 0 1.607612</float_array>
          <technique_common>
            <accessor source="#Family2_Family2__4851___4848__Geometry-mesh-map-0-array" count="36" stride="2">
              <param name="S" type="float"/>
              <param name="T" type="float"/>
            </accessor>
          </technique_common>
        </source>
        <vertices id="Family2_Family2__4851___4848__Geometry-mesh-vertices">
          <input semantic="POSITION" source="#Family2_Family2__4851___4848__Geometry-mesh-positions"/>
        </vertices>
        <triangles material="Material_002-material" count="12">
          <input semantic="VERTEX" source="#Family2_Family2__4851___4848__Geometry-mesh-vertices" offset="0"/>
          <input semantic="NORMAL" source="#Family2_Family2__4851___4848__Geometry-mesh-normals" offset="1"/>
          <input semantic="TEXCOORD" source="#Family2_Family2__4851___4848__Geometry-mesh-map-0" offset="2" set="0"/>
          <p>3 0 0 0 0 1 1 0 2 1 0 3 2 0 4 3 0 5 6 1 6 7 1 7 4 1 8 4 1 9 5 1 10 6 1 11 1 2 12 0 2 13 4 2 14 4 2 15 7 2 16 1 2 17 2 3 18 1 3 19 7 3 20 7 3 21 6 3 22 2 3 23 3 4 24 2 4 25 6 4 26 6 4 27 5 4 28 3 4 29 0 5 30 3 5 31 5 5 32 5 5 33 4 5 34 0 5 35</p>
        </triangles>
      </mesh>
    </geometry>
    <geometry id="Cube_001-mesh" name="Cube.001">
      <mesh>
        <source id="Cube_001-mesh-positions">
          <float_array id="Cube_001-mesh-positions-array" count="24">1 1 1 1 1 -1 1 -1 1 1 -1 -1 -1 1 1 -1 1 -1 -1 -1 1 -1 -1 -1</float_array>
          <technique_common>
            <accessor source="#Cube_001-mesh-positions-array" count="8" stride="3">
              <param name="X" type="float"/>
              <param name="Y" type="float"/>
              <param name="Z" type="float"/>
            </accessor>
          </technique_common>
        </source>
        <source id="Cube_001-mesh-normals">
          <float_array id="Cube_001-mesh-normals-array" count="36">0 0 1 0 -1 0 -1 0 0 0 0 -1 1 0 0 0 1 0 0 0 1 0 -1 0 -1 0 0 0 0 -1 1 0 0 0 1 0</float_array>
          <technique_common>
            <accessor source="#Cube_001-mesh-normals-array" count="12" stride="3">
              <param name="X" type="float"/>
              <param name="Y" type="float"/>
              <param name="Z" type="float"/>
            </accessor>
          </technique_common>
        </source>
        <source id="Cube_001-mesh-map-0">
          <float_array id="Cube_001-mesh-map-0-array" count="72">0 1 1 0 1 1 1 1 0 0 1 0 0 1 1 0 0 0 1 1 0 0 0 1 1 1 0 0 1 0 0 1 1 0 0 0 0 1 0 0 1 0 1 1 0 1 0 0 0 1 1 1 1 0 1 1 1 0 0 0 1 1 0 1 0 0 0 1 1 1 1 0</float_array>
          <technique_common>
            <accessor source="#Cube_001-mesh-map-0-array" count="36" stride="2">
              <param name="S" type="float"/>
              <param name="T" type="float"/>
            </accessor>
          </technique_common>
        </source>
        <vertices id="Cube_001-mesh-vertices">
          <input semantic="POSITION" source="#Cube_001-mesh-positions"/>
        </vertices>
        <triangles material="Material_001-material" count="12">
          <input semantic="VERTEX" source="#Cube_001-mesh-vertices" offset="0"/>
          <input semantic="NORMAL" source="#Cube_001-mesh-normals" offset="1"/>
          <input semantic="TEXCOORD" source="#Cube_001-mesh-map-0" offset="2" set="0"/>
          <p>4 0 0 2 0 1 0 0 2 2 1 3 7 1 4 3 1 5 6 2 6 5 2 7 7 2 8 1 3 9 7 3 10 5 3 11 0 4 12 3 4 13 1 4 14 4 5 15 1 5 16 5 5 17 4 6 18 6 6 19 2 6 20 2 7 21 6 7 22 7 7 23 6 8 24 4 8 25 5 8 26 1 9 27 3 9 28 7 9 29 0 10 30 2 10 31 3 10 32 4 11 33 0 11 34 1 11 35</p>
        </triangles>
      </mesh>
    </geometry>
  </library_geometries>
  <library_visual_scenes>
    <visual_scene id="Scene" name="Scene">
      <node id="Family2_Family2__5175__002" name="Family2 Family2 [5175].002" type="NODE">
        <matrix sid="transform">0.13 0 0 2.14927e-15 0 0.3048 0 6.19265e-15 0 0 0.3048 0.5 0 0 0 1</matrix>
        <instance_geometry url="#Family2_Family2__4851___4848__Geometry_002-mesh" name="Family2 Family2 [5175].002">
          <bind_material>
            <technique_common>
              <instance_material symbol="Material_002-material" target="#Material_002-material">
                <bind_vertex_input semantic="Family2_Family2__4851___4848__Geometry-mesh-map-0" input_semantic="TEXCOORD" input_set="0"/>
              </instance_material>
            </technique_common>
          </bind_material>
        </instance_geometry>
      </node>
      <node id="Family2_Family2__5175__001" name="Family2 Family2 [5175].001" type="NODE">
        <matrix sid="transform">0.13 0 0 2.14927e-15 0 0.3048 0 6.19265e-15 0 0 0.3048 0.9 0 0 0 1</matrix>
        <instance_geometry url="#Family2_Family2__4851___4848__Geometry_001-mesh" name="Family2 Family2 [5175].001">
          <bind_material>
            <technique_common>
              <instance_material symbol="Material_002-material" target="#Material_002-material">
                <bind_vertex_input semantic="Family2_Family2__4851___4848__Geometry-mesh-map-0" input_semantic="TEXCOORD" input_set="0"/>
              </instance_material>
            </technique_common>
          </bind_material>
        </instance_geometry>
      </node>
      <node id="_Extrusion__3348_" name=" Extrusion [3348]" type="NODE">
        <matrix sid="transform">0.13 0 0 0 0 0.3048 0 0 0 0 0.29 0 0 0 0 1</matrix>
        <instance_geometry url="#_Extrusion__3348__Geometry-mesh" name=" Extrusion [3348]">
          <bind_material>
            <technique_common>
              <instance_material symbol="Material-material" target="#Material-material">
                <bind_vertex_input semantic="_Extrusion__3348__Geometry-mesh-map-0" input_semantic="TEXCOORD" input_set="0"/>
              </instance_material>
            </technique_common>
          </bind_material>
        </instance_geometry>
      </node>
      <node id="Family2_Family2__5175_" name="Family2 Family2 [5175]" type="NODE">
        <matrix sid="transform">0.13 0 0 2.14927e-15 0 0.3048 0 6.19265e-15 0 0 0.3048 0.05 0 0 0 1</matrix>
        <instance_geometry url="#Family2_Family2__4851___4848__Geometry-mesh" name="Family2 Family2 [5175]">
          <bind_material>
            <technique_common>
              <instance_material symbol="Material_002-material" target="#Material_002-material">
                <bind_vertex_input semantic="Family2_Family2__4851___4848__Geometry-mesh-map-0" input_semantic="TEXCOORD" input_set="0"/>
              </instance_material>
            </technique_common>
          </bind_material>
        </instance_geometry>
      </node>
      <node id="Cube_001" name="Cube.001" type="NODE">
        <matrix sid="transform">0.2 0 0 0 0 0.2 0 0 0 0 0.2 0.27 0 0 0 1</matrix>
        <instance_geometry url="#Cube_001-mesh" name="Cube.001">
          <bind_material>
            <technique_common>
              <instance_material symbol="Material_001-material" target="#Material_001-material">
                <bind_vertex_input semantic="UVMap" input_semantic="TEXCOORD" input_set="0"/>
              </instance_material>
            </technique_common>
          </bind_material>
        </instance_geometry>
      </node>
    </visual_scene>
  </library_visual_scenes>
  <scene>
    <instance_visual_scene url="#Scene"/>
  </scene>
</COLLADA>